<?xml version="1.0" encoding="UTF-8"?>
<svg id="Layer_2" data-name="Layer 2" xmlns="http://www.w3.org/2000/svg" viewBox="0 0 1080 1080">
  <defs>
    <style>
      .cls-1 {
        fill: #fff;
      }

      .cls-2 {
        fill: #d4af35;
      }

      .cls-3 {
        fill: #12271a;
      }

      .cls-4 {
        fill: none;
        stroke: #f2f2f2;
        stroke-linecap: round;
        stroke-linejoin: round;
        stroke-width: .25px;
      }
    </style>
  </defs>
  <g id="Layer_5" data-name="Layer 5">
    <g>
      <g>
        <rect class="cls-3" width="1080" height="1080"/>
        <rect class="cls-3" width="1080" height="1080"/>
      </g>
      <g>
        <path class="cls-2" d="M283.88,402.66l-9.77,13.87c-4.66,5.17-13.11,3.7-15.76-2.73l-6.27-19.63-11.19,16.17c-4.46,5.37-13,4.22-15.88-2.14l-13.96-34.21h0l-13.96,34.21c-2.88,6.36-11.42,7.51-15.88,2.14l-11.19-16.17-6.27,19.63c-2.64,6.43-11.1,7.9-15.76,2.73l-9.77-13.87,7.44,58.76c15.75-15.72,38.87-25.3,65.49-25.3s49.26,9.31,64.66,24.34l8.05-57.8Z"/>
        <path class="cls-4" d="M167.55,436.12c12.75-6.34,27.68-9.9,43.92-9.9,24.69,0,45.69,7.9,60.89,20.89M163.4,438.33c.73-.42,1.48-.82,2.23-1.22M156.55,442.66c1.65-1.16,3.35-2.26,5.09-3.3M149.13,448.54c1.7-1.52,3.48-2.98,5.33-4.36"/>
        <g>
          <path class="cls-1" d="M93.75,608.19c0,5.31-5.62,12.02-13.38,20.78l.14.13c22.85-19.31,38.71-26.4,45.9-26.4,4.7,0,6.97,2.49,6.97,5.69,0,4.92-6.97,13.23-15.09,22.38l.21.13c16.94-14.83,35.23-28.2,43.91-28.2,4.41,0,6.83,2.56,6.83,5.5,0,7.29-15.66,18.61-15.66,26.92,0,3.39,2.77,5.95,10.25,5.95,17.79,0,50.96-12.02,76.5-22.64,1.49-.64,1.57,1.02,0,1.73-25.55,10.68-57.93,22.44-76.5,22.44-8.61,0-12.1-3.13-12.1-7.48,0-8.95,15.51-20.39,15.51-26.92,0-2.17-1.57-3.96-4.84-3.96-7.19,0-24.7,11.96-42.91,27.75-3.77,3.26-7.54,6.71-11.31,10.23-.86.77-2.21,0-1.42-.89,3.56-3.9,6.97-7.8,10.11-11.44,8.04-9.34,14.66-17.14,14.66-21.48,0-2.43-1.99-4.15-5.12-4.15-6.97,0-24.91,8.69-47.11,27.75-3.56,3.07-8.26,7.42-11.24,10.23-.93.83-2.28,0-1.42-.89,2.85-2.94,6.69-6.78,10.39-10.87,8.75-9.84,14.87-17.01,14.87-22.25,0-2.49-1.71-3.96-5.34-3.96-7.33,0-25.12,7.8-44.91,15.92-1.28.51-1.64-1.09,0-1.73,19.64-8.06,37.29-15.73,44.91-15.73,4.63,0,7.19,2.11,7.19,5.5Z"/>
          <path class="cls-1" d="M317.63,611.51c3.2-2.62,7.54-6.14,7.54-6.14,1-.89,2.21.13,1.21,1.02,0,0-4.34,3.45-7.97,6.52-3.84,3.2-7.9,6.52-11.03,11.06-1.78,2.75-3.7,6.39-3.7,9.97,0,4.35,3.56,7.1,11.17,7.1,17.08,0,50.32-12.02,75.86-22.64,1.42-.64,1.49,1.02,0,1.73-25.62,10.74-58,22.44-75.86,22.44-9.04,0-13.1-3.45-13.1-8.63,0-4.09,2.49-8.06,4.27-10.55l-.14-.07c-11.96,9.21-26.9,19.25-37.08,19.25-4.55,0-7.4-2.43-7.4-6.46,0-12.21,21.42-27.81,35.73-31.27l-.07-.13c-18.36,1.09-43.34,10.1-56.58,15.41-1.28.51-1.78-1.09-.14-1.73,12.74-5.05,37.79-13.87,56.01-14.9,3.42-.39,6.69-.51,8.97-.45,6.41.26,11.96,2.75,12.31,8.44ZM297.42,606.08c-13.24,3.58-34.16,18.54-34.16,29.99,0,3.2,1.99,4.99,5.55,4.99,9.54,0,24.77-10.1,35.87-18.86,4.7-3.58,11.53-9.53,11.53-9.53-.28-6.14-5.55-7.93-10.39-7.93-2.63,0-5.76.58-8.4,1.34Z"/>
          <path class="cls-1" d="M438.25,593.55c0,2.88-2.28,5.37-7.9,8.76,1.14,7.8,4.48,15.98,4.48,24.81,0,7.74-5.48,12.21-10.32,13.87,24.62,0,56.01-11.7,81.77-22.57,1.49-.7,1.56,1.02,0,1.73-25.62,10.61-56.44,22.44-82.41,22.44-10.39,0-18.22-3.9-21.21-10.1-.5-1.02.93-1.66,1.42-.77,2.99,5.5,9.39,8.82,15.58,8.82,6.55,0,13.31-6.01,13.31-13.49,0-8.18-3.06-15.92-4.27-23.78l-.14.06c-9.68,5.37-27.19,12.66-37.86,16.82-1.28.51-1.64-1.02,0-1.73,10.18-3.9,27.68-11.12,37.15-16.43.21-.13.43-.26.64-.38-.14-1.28-.21-2.62-.21-3.96,0-4.86,2.92-7.87,5.91-7.87,2.42,0,4.06,1.66,4.06,3.77ZM430.14,600.64c4.55-2.88,6.41-4.99,6.41-7.1,0-1.41-1-2.24-2.42-2.24-1.85,0-4.13,2.11-4.13,6.33,0,1.02.07,1.98.14,3.01Z"/>
          <path class="cls-1" d="M553.82,593.55c0,2.88-2.28,5.37-7.9,8.76,1.14,7.8,4.48,15.98,4.48,24.81,0,7.74-5.48,12.21-10.32,13.87,24.62,0,56.01-11.7,81.77-22.57,1.49-.7,1.56,1.02,0,1.73-25.62,10.61-56.44,22.44-82.41,22.44-10.39,0-18.22-3.9-21.21-10.1-.5-1.02.93-1.66,1.42-.77,2.99,5.5,9.39,8.82,15.58,8.82,6.55,0,13.31-6.01,13.31-13.49,0-8.18-3.06-15.92-4.27-23.78l-.14.06c-9.68,5.37-27.19,12.66-37.86,16.82-1.28.51-1.64-1.02,0-1.73,10.18-3.9,27.68-11.12,37.15-16.43.21-.13.43-.26.64-.38-.14-1.28-.21-2.62-.21-3.96,0-4.86,2.92-7.87,5.91-7.87,2.42,0,4.06,1.66,4.06,3.77ZM545.7,600.64c4.55-2.88,6.41-4.99,6.41-7.1,0-1.41-1-2.24-2.42-2.24-1.85,0-4.13,2.11-4.13,6.33,0,1.02.07,1.98.14,3.01Z"/>
          <path class="cls-1" d="M699.13,611.51c3.2-2.62,7.54-6.14,7.54-6.14,1-.89,2.21.13,1.21,1.02,0,0-4.34,3.45-7.97,6.52-3.84,3.2-7.9,6.52-11.03,11.06-1.78,2.75-3.7,6.39-3.7,9.97,0,4.35,3.56,7.1,11.17,7.1,17.08,0,50.32-12.02,75.86-22.64,1.42-.64,1.49,1.02,0,1.73-25.62,10.74-58,22.44-75.86,22.44-9.04,0-13.1-3.45-13.1-8.63,0-4.09,2.49-8.06,4.27-10.55l-.14-.07c-11.96,9.21-26.9,19.25-37.08,19.25-4.55,0-7.4-2.43-7.4-6.46,0-12.21,21.42-27.81,35.73-31.27l-.07-.13c-18.36,1.09-43.34,10.1-56.58,15.41-1.28.51-1.78-1.09-.14-1.73,12.74-5.05,37.79-13.87,56.01-14.9,3.42-.39,6.69-.51,8.97-.45,6.41.26,11.96,2.75,12.31,8.44ZM678.92,606.08c-13.24,3.58-34.16,18.54-34.16,29.99,0,3.2,1.99,4.99,5.55,4.99,9.54,0,24.76-10.1,35.87-18.86,4.7-3.58,11.53-9.53,11.53-9.53-.28-6.14-5.55-7.93-10.39-7.93-2.63,0-5.76.58-8.4,1.34Z"/>
          <path class="cls-1" d="M849.28,611.71c2.78-2.56,5.76-5.44,7.19-6.97.93-.96,2.21,0,1.35.96-1.57,1.66-4.91,4.8-8.4,8.25-3.77,3.9-6.55,7.1-9.04,10.23-7.26,9.4-13.88,19.95-20.92,30.56,33.09-15.34,66.47-28.07,85.61-36.32,1.42-.64,1.49.96,0,1.73-19.14,8.25-53.87,21.55-87.39,37.21-2.56,3.84-5.19,7.74-7.97,11.51-14.95,20.59-30.17,37.15-46.97,37.15-5.98,0-9.18-3.26-9.18-7.67,0-13.23,39.28-31.27,62.77-42.14,7.55-11.25,14.73-22.63,22.7-32.86l-.14-.06c-11.96,9.53-27.9,19.31-38.29,19.31-4.55,0-7.33-2.43-7.33-6.39,0-10.93,18.5-26.28,33.59-30.75l-.07-.19c-16.94,1.34-40.99,9.46-54.58,14.9-1.28.51-1.64-1.09,0-1.73,13.38-5.37,36.72-13.3,54.23-14.51,3.84-.64,7.54-.9,11.03-.77,7.76.45,11.46,3.71,11.81,8.57ZM762.74,704.48c16.01,0,30.89-16.5,45.4-36.44,2.14-3.01,4.27-6.14,6.41-9.21-23.98,11.13-59.07,27.68-59.07,39.38,0,3.71,2.35,6.27,7.26,6.27ZM827.15,606.78c-15.51,4.99-32.09,19.76-32.09,29.41,0,3.07,1.99,4.86,5.55,4.86,9.75,0,25.27-9.46,36.94-18.8,3.84-3.01,8.68-7.42,10.18-9.02,0-6.14-4.63-8.5-10.11-8.5-3.27,0-6.9.77-10.46,2.05Z"/>
          <path class="cls-1" d="M977.44,607.8c0,7.29-16.44,15.79-32.09,15.79-2.85,0-5.13-.32-6.48-.64-1.49,2.56-2.42,5.18-2.42,7.86,0,7.29,7.55,10.23,18.15,10.23,22.99,0,58.14-12.02,83.69-22.64,1.5-.64,1.57,1.02,0,1.73-25.55,10.68-60.56,22.44-83.69,22.44-11.6,0-19.85-3.45-19.85-11.76,0-11.63,14.73-22.25,26.97-25.89l-.07-.13c-17.93,1.28-42.91,9.97-56.58,15.35-1.28.51-1.64-1.09,0-1.73,13.45-5.43,38-13.75,56.08-14.83,3.49-.45,6.62-.58,9.25-.45,5.55.39,7.04,2.24,7.04,4.67ZM961.72,606.33c-8.26,2.62-17.29,8.44-21.99,15.28,1.14.26,3.06.51,5.55.51,14.59,0,30.46-7.8,30.46-14.32,0-2.05-1.42-3.07-5.27-3.07-2.63,0-5.62.58-8.75,1.6Z"/>
        </g>
        <path class="cls-1" d="M40.56,546.28h2.08c0,19.9,16.43,34.2,41,34.35,21.28,0,36.85-10.57,36.85-29.38,0-37.62-72.66-16.63-72.66-58.92,0-17.41,16.09-30.94,41.52-30.94,22.84,0,34.6,11.5,34.6,23.78h-2.08c0-10.88-10.55-21.76-32.52-21.92-19.55-.16-32.35,8.08-32.35,19.43,0,31.71,73.87,13.68,73.87,56.89,0,25.03-18.86,42.75-47.05,42.75-26.12,0-43.25-14.61-43.25-36.07ZM123.95,485.18c0,4.51-1.39,8.08-2.94,10.26l-1.73-.93c1.56-2.17,2.6-5.13,2.6-9.33h2.08Z"/>
        <path class="cls-1" d="M142.81,521.87c0-34.35,30.62-60.47,68.33-60.47,41.86,0,68.16,28.14,68.16,60.16s-27.68,60.78-68.16,60.78-68.33-26.12-68.33-60.47ZM258.72,521.87c0-36.53-17.3-58.6-47.57-58.6s-47.75,21.92-47.75,58.6,17.3,58.6,47.75,58.6,47.57-21.92,47.57-58.6Z"/>
        <path class="cls-1" d="M298,462.49h19.89v118.76h-19.89v-118.76ZM300.6,579.39h76.46v1.87h-76.46v-1.87Z"/>
        <path class="cls-1" d="M364.44,521.87c0-34.35,30.62-60.47,68.33-60.47,41.86,0,68.16,28.14,68.16,60.16s-27.68,60.78-68.16,60.78-68.33-26.12-68.33-60.47ZM480.35,521.87c0-36.53-17.3-58.6-47.57-58.6s-47.75,21.92-47.75,58.6,17.3,58.6,47.75,58.6,47.57-21.92,47.57-58.6Z"/>
        <path class="cls-1" d="M516.69,462.49h5.02v7.15l-5.02-7.15ZM521.36,462.49h17.65l46.88,75.71h-.87l50.69-75.71h15.57v118.76h-19.89v-110.99l2.94-1.86-56.05,83.79h-6.05l-50.34-82.08,1.56-.31v111.46h-2.08v-118.76Z"/>
        <path class="cls-1" d="M669.46,521.87c0-34.35,30.62-60.47,68.33-60.47,41.86,0,68.16,28.14,68.16,60.16s-27.68,60.78-68.16,60.78-68.33-26.12-68.33-60.47ZM785.36,521.87c0-36.53-17.3-58.6-47.57-58.6s-47.75,21.92-47.75,58.6,17.3,58.6,47.75,58.6,47.57-21.92,47.57-58.6Z"/>
        <path class="cls-1" d="M819.8,462.49h24.39l74.73,94.83,1.38,23.94h-5.71l-94.8-118.76ZM825.51,462.49h2.08v118.76h-2.08v-118.76ZM918.24,462.49h2.08v118.76h-2.08v-118.76Z"/>
        <path class="cls-1" d="M932.95,474.82c9.27-4.95,11.29-10.97,12.02-15.75l1.1-.16c-1.38,1.98-3.03,2.89-5.32,2.89-3.76,0-6.88-2.47-6.88-6.1s3.12-6.27,6.88-6.27,7.16,2.64,7.16,7.17c-.09,5.36-2.94,12.95-14.31,18.96l-.64-.74Z"/>
        <path class="cls-1" d="M949.13,546.28h2.08c0,19.9,16.43,34.2,41,34.35,21.28,0,36.85-10.57,36.85-29.38,0-37.62-72.66-16.63-72.66-58.92,0-17.41,16.09-30.94,41.52-30.94,22.84,0,34.6,11.5,34.6,23.78h-2.08c0-10.88-10.55-21.76-32.52-21.92-19.55-.16-32.35,8.08-32.35,19.43,0,31.71,73.87,13.68,73.87,56.89,0,25.03-18.86,42.75-47.05,42.75-26.12,0-43.25-14.61-43.25-36.07ZM1032.52,485.18c0,4.51-1.39,8.08-2.94,10.26l-1.73-.93c1.56-2.17,2.6-5.13,2.6-9.33h2.08Z"/>
      </g>
    </g>
  </g>
</svg>