<?xml version="1.0" encoding="UTF-8"?>
<svg id="Layer_2" data-name="Layer 2" xmlns="http://www.w3.org/2000/svg" viewBox="0 0 1080 1080">
  <defs>
    <style>
      .cls-1 {
        fill: #fff;
      }

      .cls-2 {
        fill: #d4af35;
      }

      .cls-3 {
        fill: #12271a;
      }

      .cls-4 {
        fill: none;
        stroke: #fff;
        stroke-linecap: round;
        stroke-linejoin: round;
        stroke-width: .25px;
      }
    </style>
  </defs>
  <g id="Layer_5" data-name="Layer 5">
    <g>
      <g>
        <rect class="cls-3" width="1080" height="1080"/>
        <rect class="cls-3" width="1080" height="1080"/>
      </g>
      <g>
        <path class="cls-1" d="M496.4,742.81c14.17,31.78,29.81,58.04,46.92,78.81,17.1,20.78,34.7,36.41,52.79,46.92,18.07,10.52,35.18,15.76,51.31,15.76,19.06,0,33.84-6.11,44.36-18.33,10.51-12.21,15.77-27.87,15.77-46.92,0-16.13-4.29-31.28-12.84-45.46-8.56-14.17-20.53-28.1-35.92-41.79-15.4-13.68-33.61-27.86-54.62-42.52-20.53-15.14-39.22-30.79-56.08-46.92-16.87-16.13-30.43-33.73-40.69-52.78-10.26-19.06-15.39-40.32-15.39-63.78,0-40.07,13.55-72.33,40.68-96.77,27.13-24.43,64.63-36.65,112.53-36.65,9.28,0,20.53.49,33.73,1.47,13.19.98,27.13,2.69,41.79,5.13l41.05,5.86,21.26,115.83-3.66,2.2c-18.58-35.67-39.59-64.26-63.05-85.78-23.46-21.5-46.68-32.26-69.65-32.26-16.62,0-30.42,5.26-41.42,15.76-11,10.52-16.5,24.81-16.5,42.89,0,20.05,7.82,39.59,23.46,58.65,15.64,19.06,39.09,39.59,70.38,61.58,28.83,19.56,52.05,38.25,69.65,56.09,17.6,17.84,30.42,35.81,38.49,53.88,8.06,18.09,12.1,37.88,12.1,59.38,0,27.86-6.35,52.79-19.05,74.78-12.72,22-30.43,39.22-53.16,51.68-22.73,12.47-49.49,18.7-80.28,18.7-16.13,0-31.65-1.6-46.55-4.77-14.92-3.18-28.72-6.23-41.42-9.16l-53.52-13.19-16.86-126.1,4.39-2.2Z"/>
        <g>
          <path class="cls-2" d="M659.13,299.6l-86.28-117.83,9.71,48.98c1.55,20.41-18.74,35.45-37.82,28.02l-54.54-26.49,11.74,56.68c2.39,20.4-17.39,36.26-36.78,29.49l-101.23-39.72h0l44.56,99.2c7.7,19.04-7.19,39.57-27.68,38.17l-57.18-8.99,29.09,53.2c8.34,18.7-5.7,39.69-26.16,39.13l-49.4-7.34,121.86,80.49c35.29-88.51,217.14-258.02,260.11-272.98Z"/>
          <g>
            <path class="cls-4" d="M419.62,497.09c63.76-87.36,186.11-197.63,219.96-209.42"/>
            <path class="cls-4" d="M414.7,503.94c.9-1.28,1.81-2.56,2.74-3.86"/>
            <path class="cls-4" d="M396.49,532.45c4.21-7.47,9.15-15.31,14.67-23.41"/>
            <path class="cls-4" d="M390.49,543.87c.86-1.76,1.76-3.56,2.71-5.37"/>
            <path class="cls-4" d="M386.16,553.63c.85-2.13,1.79-4.31,2.81-6.54"/>
          </g>
        </g>
      </g>
    </g>
  </g>
</svg>